<svg width="800" height="600" xmlns="http://www.w3.org/2000/svg">
 <!-- Created with Method Draw - http://github.com/duopixel/Method-Draw/ -->

 <g id="Layer_1">
  <title>Layer 1</title>
  <path fill="#000000" stroke="#000" stroke-width="0" stroke-dasharray="2,2" stroke-opacity="null" fill-opacity="null" opacity="undefined" d="m263.5,477.17799c0.12275,-16.27988 23.26291,-21.64316 32.76206,-32.93791c36.66821,-27.92346 72.39585,-60.16151 94.87214,-104.16815c23.87816,-44.96327 36.82748,-100.04001 27.11429,-152.1951c-5.15083,-32.36272 -32.87249,-58.26405 -62.20494,-54.21353c-19.3186,2.99896 -41.63373,8.04491 -52.81157,28.284c-12.1332,10.34058 -5.45785,34.57624 10.71742,25.37147c20.69442,-8.96365 46.68639,9.3145 45.86797,35.22127c0.02399,24.56456 -21.89039,41.89341 -42.31271,39.58768c-22.74649,-0.25808 -45.26364,-21.08401 -44.78821,-48.08244c-1.57643,-43.51405 31.60323,-79.05367 67.11869,-88.1736c31.75652,-11.22849 68.67576,-6.71026 95.45457,16.64796c19.92586,15.45566 35.6173,38.88635 38.89105,66.54242c7.06823,35.95636 -2.06625,73.06351 -17.91201,104.34505c-20.36481,42.14173 -51.48125,76.64102 -87.6019,101.38934c-33.54801,24.27614 -68.44341,46.20053 -104.54263,65.20355c-0.20808,-0.94066 -0.41614,-1.88136 -0.62421,-2.82204l-0.00001,0.00002l0,0.00001zm241.0048,-177.41904c-17.27167,-8.87506 -13.46109,-44.93823 6.64264,-45.74931c15.04279,-3.98169 29.09381,13.8586 24.45013,30.35637c-2.9293,15.43833 -19.26294,22.1295 -31.09277,15.39295l0,-0.00001zm0,-98.65287c-17.27167,-8.87502 -13.46109,-44.93823 6.64264,-45.7493c15.04279,-3.98168 29.09381,13.85861 24.45013,30.35637c-3.00538,15.49068 -19.17885,22.1013 -31.09277,15.39294l0,-0.00001z" id="svg_1"/>
 </g>
</svg>